<?xml version="1.0" encoding="UTF-8"?><svg version="1.1" xmlns="http://www.w3.org/2000/svg" xmlns:xlink="http://www.w3.org/1999/xlink" viewBox="0 0 1200 800" width="1200" height="800" x="0px" y="0px">
    
    
    <!-- ITEM 0 -->
    <g>
        <defs>
            <clipPath id="clip-path-id-viewbox-item-0">
                <rect x="0.0" y="0.0" width="86.356" height="328.724"/>
            </clipPath>
        </defs>
        <g transform="translate(1050.0 541.0) rotate(0.0 23.5 89.0) scale(0.5442586502385475 0.5414876918022414)">
            <g clip-path="url(#clip-path-id-viewbox-item-0)" transform="translate(-0.0 -0.0)">
                
  
  <g>
    <path d="M51.875,328.723a3,3,0,0,1-3-2.894L37.451,3.106a3,3,0,0,1,6-.212L54.875,325.616a3,3,0,0,1-2.892,3.105Z" transform="translate(0 0.002)" style="         fill: #222433;       "/>
    <g>
      <path d="M42.021,50.98a3,3,0,0,1-2.505-1.35L20.336,20.5a3,3,0,1,1,5.012-3.3L41.817,42.214,56.5,16.053a3,3,0,1,1,5.232,2.936L44.639,49.448a3,3,0,0,1-2.511,1.53Z" transform="translate(0 0.002)" style="         fill: #222433;       "/>
      <path d="M43.069,81.176a3,3,0,0,1-2.512-1.362L12.842,37.319a3,3,0,1,1,5.026-3.277l25,38.331L65.161,32.322A3,3,0,1,1,70.4,35.24l-24.712,44.4a3,3,0,0,1-2.516,1.539Z" transform="translate(0 0.002)" style="         fill: #222433;       "/>
      <path d="M44.328,115.671a3,3,0,0,1-2.505-1.35L5.869,59.727a3,3,0,0,1,5.01-3.3l33.245,50.479,29.6-52.733a3,3,0,1,1,5.232,2.936l-32.01,57.03a3,3,0,0,1-2.509,1.53Z" transform="translate(0 0.002)" style="         fill: #222433;       "/>
      <path d="M45.482,148.908a3,3,0,0,1-2.5-1.349L.5,83.1a3,3,0,1,1,5.01-3.3l39.774,60.347L80.74,77.1a3,3,0,0,1,5.231,2.942L48.1,147.379a3,3,0,0,1-2.51,1.527C45.553,148.908,45.518,148.908,45.482,148.908Z" transform="translate(0 0.002)" style="         fill: #222433;       "/>
    </g>
  </g>

            </g>
        </g>
    </g>
    
    <!-- ITEM 1 -->
    <g>
        <defs>
            <clipPath id="clip-path-id-viewbox-item-1">
                <rect x="0.0" y="0.0" width="147.908" height="142.217"/>
            </clipPath>
        </defs>
        <g transform="translate(319.0 478.0) rotate(0.0 25.0 24.0) scale(0.33804797576872114 0.33751239303318165)">
            <g clip-path="url(#clip-path-id-viewbox-item-1)" transform="translate(-0.0 -0.0)">
                
  
  <path d="M29.921,139.974q-.627-.37-1.227-.8a15.6,15.6,0,0,1-6.265-15.292l4.617-27.033A9.759,9.759,0,0,0,24.3,88.286L4.734,69.149a15.642,15.642,0,0,1,8.613-26.674l27.1-3.946a9.761,9.761,0,0,0,7.3-5.27l12.1-24.544a15.6,15.6,0,0,1,28.026.055l12.139,24.614a9.484,9.484,0,0,0,7.222,5.263L134.327,42.6a15.622,15.622,0,0,1,12.818,10.689,15.329,15.329,0,0,1-3.991,15.88l-19.6,19.174a9.667,9.667,0,0,0-2.763,8.579l4.578,27a15.616,15.616,0,0,1-22.706,16.464L78.381,127.624a9.71,9.71,0,0,0-8.982.028l-24.243,12.7A15.57,15.57,0,0,1,29.921,139.974Z" style="         fill: #5a38fd;       "/>

            </g>
        </g>
    </g>
    
    <!-- ITEM 2 -->
    <g>
        <defs>
            <clipPath id="clip-path-id-viewbox-item-2">
                <rect x="0.0" y="0.0" width="887.4" height="14.1"/>
            </clipPath>
        </defs>
        <g transform="translate(21.0 712.0) rotate(0.0 581.0 9.5) scale(1.3094433175569078 1.3475177304964538)">
            <g clip-path="url(#clip-path-id-viewbox-item-2)" transform="translate(-0.0 -0.0)">
                

<g>
	<path d="M875.2,6.1H3.7C2.7,6.1,2,5.6,2,4.9s0.7-1.2,1.7-1.2h871.5c1,0,1.7,0.5,1.7,1.2S876,6.1,875.2,6.1z" style="fill:#222433;"/>
</g>

            </g>
        </g>
    </g>
    
    <!-- ITEM 3 -->
    <g>
        <defs>
            <clipPath id="clip-path-id-viewbox-item-3">
                <rect x="0.0" y="0.0" width="138.875" height="455.761"/>
            </clipPath>
        </defs>
        <g transform="translate(1088.0 464.0) rotate(353.6021410329297 38.5 126.5) scale(0.5544554455445545 0.5551155101028828)">
            <g clip-path="url(#clip-path-id-viewbox-item-3)" transform="translate(-0.0 -0.0)">
                
  
  <g>
    <g>
      <path d="M112.112,137.529l-35.36,21.179-21.179-35.36a48.7,48.7,0,0,1,16.649-66.83l.132-.079,35.36-21.179,21.179,35.36a48.7,48.7,0,0,1-16.649,66.83Z" transform="translate(0.001 0)" style="         fill: #fff;       "/>
      <path d="M76.752,161.708a3,3,0,0,1-2.573-1.458L53,124.89A51.7,51.7,0,0,1,70.676,53.947l.134-.08,35.363-21.181a3,3,0,0,1,4.114,1.032l21.179,35.361a51.7,51.7,0,0,1-17.676,70.942l-.134.08,0,0L78.294,161.282A3.006,3.006,0,0,1,76.752,161.708Zm29.93-122.333-32.9,19.7A45.7,45.7,0,0,0,58.145,121.8l19.639,32.79L110.7,134.877a45.7,45.7,0,0,0,15.621-62.711Zm5.43,98.154h0Z" transform="translate(0.001 0)" style="         fill: #222433;       "/>
    </g>
    <path d="M3,455.761a3.032,3.032,0,0,1-.732-.091,3,3,0,0,1-2.18-3.64L88.146,100.946a3,3,0,0,1,5.821,1.46L5.91,453.489A3,3,0,0,1,3,455.761Z" transform="translate(0.001 0)" style="         fill: #222433;       "/>
    <path d="M107.716,38.262a3.032,3.032,0,0,1-.732-.091,3,3,0,0,1-2.18-3.64l7.988-31.85a3,3,0,0,1,5.82,1.46l-7.988,31.85A3,3,0,0,1,107.716,38.262Z" transform="translate(0.001 0)" style="         fill: #222433;       "/>
    <path d="M107.71,38.262a3,3,0,0,1-2.95-2.48L99.074,3.521a3,3,0,1,1,5.908-1.042l5.686,32.262a3,3,0,0,1-2.958,3.521Z" transform="translate(0.001 0)" style="         fill: #222433;       "/>
    <path d="M107.712,38.261a3,3,0,0,1-2.351-4.862L125.724,7.671a3,3,0,0,1,4.7,3.724L110.066,37.123A2.992,2.992,0,0,1,107.712,38.261Z" transform="translate(0.001 0)" style="         fill: #222433;       "/>
    <g>
      <circle cx="70.964" cy="181.959" r="23.801" style="         fill: #fff;       "/>
      <path d="M70.963,208.76a26.8,26.8,0,1,1,26.8-26.8A26.832,26.832,0,0,1,70.963,208.76Zm0-47.6a20.8,20.8,0,1,0,20.8,20.8A20.824,20.824,0,0,0,70.963,161.158Z" transform="translate(0.001 0)" style="         fill: #222433;       "/>
    </g>
  </g>

            </g>
        </g>
    </g>
    
    <!-- ITEM 4 -->
    <g>
        <defs>
            <clipPath id="clip-path-id-viewbox-item-4">
                <rect x="0.0" y="0.0" width="834.668" height="623.0"/>
            </clipPath>
        </defs>
        <g transform="translate(116.0 110.0) rotate(0.0 227.0 169.0) scale(0.5439288435641476 0.5425361155698234)">
            <g clip-path="url(#clip-path-id-viewbox-item-4)" transform="translate(-0.0 -0.0)">
                
  
  <g>
    <g>
      <polyline points="3 20 3 620 831.668 619.792 831.668 56.792" style="         fill: #fff;       "/>
      <path d="M3,623a3,3,0,0,1-3-3V20a3,3,0,0,1,6,0V617l822.668-.206v-560a3,3,0,0,1,6,0v563a3,3,0,0,1-3,3Z" style="         fill: #222433;       "/>
    </g>
    <g>
      <rect x="3" y="3" width="828.5" height="54" style="         fill: #fff;       "/>
      <path d="M831.5,60H3a3,3,0,0,1-3-3V3A3,3,0,0,1,3,0H831.5a3,3,0,0,1,3,3V57A3,3,0,0,1,831.5,60ZM6,54H828.5V6H6Z" style="         fill: #222433;       "/>
    </g>
    <g>
      <path d="M813.774,45.987a2.992,2.992,0,0,1-2.127-.884L785.9,19.229A3,3,0,0,1,790.153,15L815.9,40.87a3,3,0,0,1-2.127,5.117Z" style="         fill: #222433;       "/>
      <path d="M788.026,45.987A3,3,0,0,1,785.9,40.87L811.647,15a3,3,0,0,1,4.254,4.233L790.153,45.1A2.994,2.994,0,0,1,788.026,45.987Z" style="         fill: #222433;       "/>
    </g>
    <path d="M768.487,45.987H742.613a3,3,0,0,1-3-3V17.113a3,3,0,0,1,3-3h25.874a3,3,0,0,1,3,3V42.987A3,3,0,0,1,768.487,45.987Zm-22.874-6h19.874V20.113H745.613Z" style="         fill: #222433;       "/>
    <path d="M722.687,42.3H697.813a3,3,0,0,1,0-6h24.874a3,3,0,0,1,0,6Z" style="         fill: #222433;       "/>
  </g>

            </g>
        </g>
    </g>
    
    <!-- ITEM 5 -->
    <g>
        <defs>
            <clipPath id="clip-path-id-viewbox-item-5">
                <rect x="0.0" y="0.0" width="919.826" height="967.5"/>
            </clipPath>
        </defs>
        <g transform="translate(1125.0 215.0) rotate(0.0 -240.0 252.0) scale(-0.5218378258496715 0.5209302325581395)">
            <g clip-path="url(#clip-path-id-viewbox-item-5)" transform="translate(-0.0 -0.0)">
                
  
  <g>
    <g>
      <path d="M888.3,198.7s3.8-70.7,5.3-88.4c1.9-20.4-3.9-30.1-12.2-30.4-14.2-.6-16.2,52.3-16.5,60.4.2-9.1,1-75.4-17.5-76.4-20.3-1.1-12.8,70.5-12.8,70.5a.31.31,0,0,1-.2-.1,47.756,47.756,0,0,0-.6-5.3c-3.2-16.9-10.8-27.7-21.7-34-10.1-5.8-22.1-7.8-35.9-2.9a13.445,13.445,0,0,0-8.2,17.2,13.746,13.746,0,0,0,5.1,6.7,8.807,8.807,0,0,0-1.7-.2,13.508,13.508,0,0,0-14.2,12.7,86.233,86.233,0,0,0,.3,12.6c1.6,13.4,10,25.5,24.3,34.2a28.467,28.467,0,0,1,11.9,23.6m-8.5-81.4c6-2.1,10.6-2.3,13.6-.6,3.8,2.2,6.9,8.4,8.6,17.2a11.549,11.549,0,0,1-4.8,11.8,11.769,11.769,0,0,1-11.6,1,11.024,11.024,0,0,1-6.6-9,51.734,51.734,0,0,1-.2-8,13.4,13.4,0,0,0-5.9-11.9A12.609,12.609,0,0,0,785.2,117.5Z" style="         fill: #fff;       "/>
      <path d="M793.7,201.9h-.015a3,3,0,0,1-2.986-3.014,25.621,25.621,0,0,0-10.573-21.095c-14.793-9.039-23.883-21.938-25.6-36.336a89.7,89.7,0,0,1-.318-13.088,16.5,16.5,0,0,1,12.372-15.073,17.177,17.177,0,0,1-1.4-2.985,16.54,16.54,0,0,1,10.016-21.034c13.517-4.8,26.436-3.749,38.4,3.124a43.827,43.827,0,0,1,16.606,17.12c-.19-16.883,1.286-37.232,8.7-45.029a10.931,10.931,0,0,1,8.661-3.586c9.586.519,15.663,12.886,18.58,37.81.037.317.074.636.109.952,1.939-8.962,4.692-16.518,8.6-20.129a9.027,9.027,0,0,1,6.676-2.634,13.083,13.083,0,0,1,9.512,4.623c4.882,5.557,6.8,15.6,5.548,29.052-1.477,17.427-5.254,87.576-5.292,88.283a3,3,0,1,1-5.991-.322c.038-.707,3.82-70.949,5.307-88.492,1.459-15.673-1.93-22.113-4.079-24.56a7.039,7.039,0,0,0-5.241-2.588,3.136,3.136,0,0,0-2.368,1.046c-5.706,5.27-9.93,26.907-11.025,56.466a3,3,0,0,1-6-.178c.792-36.006-3.99-72.76-14.663-73.336a4.865,4.865,0,0,0-3.989,1.727c-9.248,9.724-7.225,50.553-5.665,65.464a3,3,0,0,1-.755,2.32,3.221,3.221,0,0,1-4.556.008,3,3,0,0,1-.868-1.95,44.835,44.835,0,0,0-.564-4.973C827.955,114.254,821.33,103.8,810.6,97.6c-10.371-5.956-21.609-6.855-33.4-2.671A10.4,10.4,0,0,0,770.83,108.3a10.727,10.727,0,0,0,3.983,5.233,3,3,0,0,1,1.287,2.423,3.01,3.01,0,0,1,2.865-.886,9.57,9.57,0,0,0,5.244-.406h0c6.866-2.4,12.273-2.529,16.07-.378,4.618,2.673,8.185,9.5,10.066,19.24a14.681,14.681,0,0,1-20.563,16.112,14.146,14.146,0,0,1-8.366-11.427,55.514,55.514,0,0,1-.214-8.418,10.414,10.414,0,0,0-4.6-9.321,3,3,0,0,1-1.306-2.436,3,3,0,0,1-2.786.9,9.467,9.467,0,0,0-1.276-.146,10.471,10.471,0,0,0-11.042,9.866,83.424,83.424,0,0,0,.288,12.131c1.5,12.518,9.621,23.88,22.875,31.944.076.046.149.095.22.148A31.5,31.5,0,0,1,796.7,198.913,3,3,0,0,1,793.7,201.9Zm-8.779-81.178a16.2,16.2,0,0,1,2.276,9.362,50.144,50.144,0,0,0,.183,7.444,8.062,8.062,0,0,0,4.842,6.631,8.786,8.786,0,0,0,8.671-.723,8.59,8.59,0,0,0,3.566-8.76c-1.5-7.783-4.179-13.454-7.159-15.179-2.138-1.214-6.091-.921-11.106.835l-.006,0C785.764,120.481,785.341,120.609,784.918,120.722Zm.282-3.222h0Z" style="         fill: #222433;       "/>
    </g>
    <g>
      <path d="M188.5,757h0c-11.5,36-62.6,77.5-123.7,63C37.7,813.6,11.5,832.7,3,859.4H3l141.1,56.9,111.8-43.6-31.1,76.1,38.5,15.6,61.5-152Z" style="         fill: #fff;       "/>
      <path d="M263.3,967.4a3.01,3.01,0,0,1-1.127-.219l-38.5-15.6a3,3,0,0,1-1.65-3.915l28.456-69.631L145.19,919.1a3,3,0,0,1-2.212-.013l-141.1-56.9A3,3,0,0,1,.141,858.49c9.438-29.645,38.142-47.838,65.348-41.41,60.253,14.3,109.29-26.987,120.153-60.993a3,3,0,0,1,3.988-1.866l136.3,55.4a3,3,0,0,1,1.651,3.9l-61.5,152A3,3,0,0,1,263.3,967.4Zm-34.585-20.25,32.93,13.343L320.9,814.052l-130.6-53.085c-13.409,35.53-64.238,76.661-126.186,61.952-23.366-5.52-48.055,9.648-57.345,34.764l137.357,55.389L254.81,869.905a3,3,0,0,1,3.867,3.93Z" style="         fill: #222433;       "/>
    </g>
    <g>
      <path d="M655.3,964.5l-.2-164,147.1-.5h0c-2.8,37.7,6.5,95.3,68.6,104.7,27.5,4.2,44.7,31.7,42.6,59.7h0l-156.6.1-60.3-82.2.4,82.2Z" style="         fill: #fff;       "/>
      <path d="M756.8,967.5a3,3,0,0,1-2.419-1.225l-54.836-74.752.355,72.962a3,3,0,0,1-3,3.015H655.3a3,3,0,0,1-3-3l-.2-164a3,3,0,0,1,2.99-3l147.1-.5a3.126,3.126,0,0,1,2.2.955,3,3,0,0,1,.8,2.268c-2.021,27.209.37,91.568,66.057,101.511,27.644,4.222,47.471,31.847,45.143,62.891a3,3,0,0,1-2.99,2.775l-156.6.1Zm-98.5-6h35.589l-.385-79.185a3,3,0,0,1,5.419-1.79l59.4,80.974,152.233-.1c.775-26.79-16.461-50.11-40.205-53.736-28.66-4.339-49.148-18.942-60.889-43.405-10.51-21.9-11.233-46.647-10.456-61.25l-140.9.479Z" style="         fill: #222433;       "/>
    </g>
    <g>
      <path d="M368.193,398.544C363.7,424.7,346.54,532.885,365,533.5L465.166,371.838Z" style="         fill: #fff;       "/>
      <path d="M365,536.5l-.1,0a7.824,7.824,0,0,1-5.911-3.111c-2.126-2.61-8.595-10.548-3.342-65.216,2.891-30.079,8.07-61.286,9.589-70.135a3,3,0,0,1,2.16-2.385l96.973-26.706a3,3,0,0,1,3.347,4.473L367.55,535.08A3,3,0,0,1,365,536.5Zm5.829-135.57c-9.674,56.943-15.6,118.348-7.189,128.667.049.059.1.116.145.169l94.8-153Z" style="         fill: #222433;       "/>
    </g>
    <rect x="663.2" y="572.234" width="3" height="45.833" transform="translate(-227.494 590.64) rotate(-41.551)" style="         fill: #2b292d;       "/>
    <path d="M805.5,481.4,675.424,313.7,499.563,292.466l-30.869,42.595c.4.449,7.876,26.156,8.062,30.826.118,2.946-40.684,14.315-40.8,14.345l-13.47,18.585a4.57,4.57,0,0,1,.179.634c1.243,6.735-3.543,15.6-7.388,19.757-14.84,20.387-20.881,46.959-21.031,47.86-1.448,8.663-5.654,23.081-17.038,18.244A82.565,82.565,0,0,1,340.6,525.4a89.024,89.024,0,0,0-44.9,61A80.942,80.942,0,0,1,255,642.1a87.393,87.393,0,0,0-29.2,25l-.5-.4-58.1,78.7,152.2,96.1,47.7-64.6c1.4-1.7,2.6-3.4,3.9-5.3a88.631,88.631,0,0,0,7.6-13.5,90.449,90.449,0,0,0,6.5-20.3c4.6-23.8,20.1-43.8,41.3-55.4A89.37,89.37,0,0,0,465,641a90.449,90.449,0,0,0,6.5-20.3c4.6-23.8,20.1-43.8,41.3-55.4a89.093,89.093,0,0,0,31.1-28.2l.2.2,34.7-47.072L649.5,578V811.6h180l.1-268.9A89.943,89.943,0,0,0,805.5,481.4Z" style="         fill: #5a38fd;       "/>
    <path d="M386.9,732.6q-.131,0-.264-.012a3,3,0,0,1-2.728-3.249l4.4-50.4a3,3,0,0,1,5.977.521l-4.4,50.4A3,3,0,0,1,386.9,732.6Z" style="         fill: #222433;       "/>
    <path d="M286.3,643.5a3.037,3.037,0,0,1-.524-.047,3,3,0,0,1-2.434-3.474l8.3-47.1a3,3,0,0,1,5.909,1.041l-8.3,47.1A3,3,0,0,1,286.3,643.5Z" style="         fill: #222433;       "/>
    <path d="M474.1,613a3,3,0,0,1-2.96-3.51l9.1-52.8a3,3,0,1,1,5.912,1.019l-9.1,52.8A3,3,0,0,1,474.1,613Z" style="         fill: #222433;       "/>
    <path d="M579.8,491.6a3,3,0,0,1-2.412-4.782l21.7-29.4a3,3,0,1,1,4.828,3.563l-21.7,29.4A3,3,0,0,1,579.8,491.6Z" style="         fill: #222433;       "/>
    <path d="M895.16,891.159c-18.15,0-65.208-6.836-71.107-7.7a3,3,0,0,1-1.014-5.594c5.841-3.226,57.394-31.587,68.864-33.665a23.7,23.7,0,1,1,8.444,46.642A31.455,31.455,0,0,1,895.16,891.159Zm4.653-3.273h0Zm-65.965-9.095c21.3,2.955,57.847,7.514,65.431,6.143h0a17.7,17.7,0,1,0-6.308-34.833C885.322,851.485,852.735,868.56,833.848,878.791Z" style="         fill: #222433;       "/>
    <path d="M824.49,883.487a3,3,0,0,1-2.787-4.111c2.473-6.2,24.375-60.853,31.96-69.65a23.689,23.689,0,0,1,41.637,13.6,23.315,23.315,0,0,1-5.6,17.125c-7.493,8.78-57.935,39.169-63.663,42.606A2.993,2.993,0,0,1,824.49,883.487Zm47.246-76.035a17.828,17.828,0,0,0-13.529,6.192c-5.049,5.855-19.434,39.714-27.556,59.6,18.344-11.211,49.5-30.838,54.483-36.687l.011-.013a17.355,17.355,0,0,0,4.172-12.756,17.627,17.627,0,0,0-17.581-16.337Z" style="         fill: #222433;       "/>
    <g>
      <path d="M675.166,317.838,757.7,406.1a89.084,89.084,0,0,0,54.4,18.6,91.973,91.973,0,0,0,39.8-9.2,89.392,89.392,0,0,0,50-80.5V199.5h-120v74.2L664.392,175.389a151.491,151.491,0,0,0-28.077-18.777l-51.386-8.341c-1.846.2-3.687.367-5.528.441L371.9,157.1a60.013,60.013,0,0,0-55.5,75.7l45.7,167.4L478,368.7,452.1,274l55.838-2.274A86.386,86.386,0,0,0,502.4,293.4l170,20.3" style="         fill: #fff;       "/>
      <path d="M812.1,427.7a91.533,91.533,0,0,1-56.228-19.222,2.906,2.906,0,0,1-.363-.329l-82.534-88.262a3,3,0,0,1-.586-3.187,3.1,3.1,0,0,1-.345-.021l-170-20.3a3,3,0,0,1-2.622-3.342,89.921,89.921,0,0,1,4.14-18.13l-47.574,1.937,24.906,91.065a3,3,0,0,1-2.107,3.686l-115.9,31.5a3,3,0,0,1-3.681-2.105l-45.7-167.4A63.012,63.012,0,0,1,371.785,154.1l207.495-8.387c1.574-.064,3.265-.2,5.321-.426a2.964,2.964,0,0,1,.809.022l51.385,8.34a2.957,2.957,0,0,1,.878.287,154.957,154.957,0,0,1,28.644,19.15L778.9,267.278V199.5a3,3,0,0,1,3-3h120a3,3,0,0,1,3,3V335a92.4,92.4,0,0,1-51.665,83.187A95.628,95.628,0,0,1,812.1,427.7Zm-52.378-23.831A85.577,85.577,0,0,0,812.1,421.7a89.553,89.553,0,0,0,38.5-8.9A86.418,86.418,0,0,0,898.9,335V202.5h-114v71.2a3,3,0,0,1-4.925,2.3L662.467,177.69a149.35,149.35,0,0,0-27.1-18.192l-50.521-8.2c-2.015.215-3.717.347-5.325.412l-207.5,8.387a57.015,57.015,0,0,0-52.727,71.915L364.205,396.52l110.109-29.926-25.108-91.8A3,3,0,0,1,451.978,271l55.838-2.273a3,3,0,0,1,2.907,4.112,83.219,83.219,0,0,0-4.928,17.942l166.961,19.938a3,3,0,0,1,2.421,4.116,2.991,2.991,0,0,1,2.18.951Z" style="         fill: #222433;       "/>
    </g>
    <path d="M843.4,181.4a3,3,0,0,1-2.725-1.743c-12.205-26.425-33.453-28.264-40.436-28.869a3,3,0,0,1,.518-5.978c7.84.679,31.7,2.745,45.365,32.332A3,3,0,0,1,843.4,181.4Z" style="         fill: #222433;       "/>
    <path d="M178.01,877.93c-.421,0-.842-.011-1.268-.033A23.711,23.711,0,0,1,154.4,852.942h0c.609-11.56,22.335-66.256,24.81-72.455a3,3,0,0,1,5.677.311c1.784,6.435,17.413,63.205,16.805,74.76A23.706,23.706,0,0,1,178.01,877.93ZM160.4,853.257a17.682,17.682,0,0,0,35.308,1.986c.406-7.709-8.651-43.381-14.225-64.14-7.8,20.013-20.678,54.453-21.083,62.155Z" style="         fill: #222433;       "/>
    <path d="M225.089,863.842a23.938,23.938,0,0,1-3.649-.279,23.386,23.386,0,0,1-15.459-9.387c-6.9-9.358-24.819-65.405-26.84-71.768a3,3,0,0,1,4.585-3.362c5.455,3.836,53.5,37.749,60.387,47.071a23.7,23.7,0,0,1-19.024,37.725Zm-37.46-74.666c6.676,20.424,18.59,55.226,23.183,61.441l.013.017a17.628,17.628,0,0,0,24.692,3.754,17.664,17.664,0,0,0,7.018-11.592,17.469,17.469,0,0,0-3.247-13.112C234.689,823.463,205.091,801.67,187.629,789.176Z" style="         fill: #222433;       "/>
    <path d="M672.4,316.7a3.277,3.277,0,0,1-.355-.02,3,3,0,0,1-2.629-3.33,83.109,83.109,0,0,0-2.8-33.305,93.281,93.281,0,0,1-1.751-46.394,3,3,0,0,1,5.858,1.3,87.288,87.288,0,0,0,1.649,43.405,89.068,89.068,0,0,1,3,35.7A3,3,0,0,1,672.4,316.7Z" style="         fill: #222433;       "/>
    <path d="M762.8,290.2a3,3,0,0,1-1.742-5.443l19.1-13.6a3,3,0,1,1,3.48,4.887l-19.1,13.6A2.984,2.984,0,0,1,762.8,290.2Z" style="         fill: #222433;       "/>
    <path d="M508,274.7a3,3,0,0,1-.123-6l26.3-1.1a3,3,0,0,1,.251,5.994l-26.3,1.1C508.083,274.7,508.04,274.7,508,274.7Z" style="         fill: #222433;       "/>
    <path d="M452,276.9a3,3,0,0,1-2.926-2.352l-3.7-16.7a3,3,0,0,1,5.858-1.3l3.7,16.7A3,3,0,0,1,452,276.9Z" style="         fill: #222433;       "/>
    <path d="M595.611,86.674A49.9,49.9,0,0,0,595.3,98.1a51.436,51.436,0,0,0,1.671,9.135L587.6,139.3l-2,7.6a22.354,22.354,0,0,0-1.1,9.5,25.879,25.879,0,0,0,50.6,5.1l2.5-8,2.882-9.929a50.049,50.049,0,0,0,49.863-71.512A49.815,49.815,0,0,0,691.7,65.5a52.118,52.118,0,0,0,.3-11.2,41.445,41.445,0,0,0-1-6.3L665.166,19.838Z" style="         fill: #fff;       "/>
    <path d="M678.9,102.4a3,3,0,0,1-1.568-5.559l8.308-5.077L676,75A3,3,0,0,1,681.2,72l11.1,19.3a3,3,0,0,1-1.037,4.055l-10.8,6.6A2.978,2.978,0,0,1,678.9,102.4Z" style="         fill: #222433;       "/>
    <circle cx="662.205" cy="78.391" r="3.7" transform="translate(94.259 427.817) rotate(-38.353)" style="         fill: #222433;       "/>
    <circle cx="689.661" cy="78.298" r="3.7" transform="translate(100.242 444.833) rotate(-38.353)" style="         fill: #222433;       "/>
    <path d="M671.443,117.226a13.721,13.721,0,0,1-1.989-.145,13.574,13.574,0,0,1-9.3-5.848l-.25-.334a3,3,0,1,1,4.8-3.6l.3.4c.035.047.07.1.1.146a7.467,7.467,0,0,0,5.218,3.3,7.847,7.847,0,0,0,6.153-1.745l1.46-1.267a3,3,0,0,1,3.929,4.535l-1.5,1.3A13.9,13.9,0,0,1,671.443,117.226Z" style="         fill: #222433;       "/>
    <path d="M640.3,145.7c-.1,0-.2,0-.3-.014a53.744,53.744,0,0,1-25.951-9.849,3,3,0,0,1,3.5-4.873,47.743,47.743,0,0,0,23.049,8.751,3,3,0,0,1-.3,5.985Z" style="         fill: #222433;       "/>
    <path d="M694.03,46.354a53.08,53.08,0,0,0-94.041-20.881,3.038,3.038,0,0,0-.5.582c-6.308,9.623-13.679,14.882-21.907,15.63-8.822.8-18.481-3.8-27.206-12.948-.482-.509-.949-.966-1.34-1.333A92.163,92.163,0,0,0,483.2,0a93.282,93.282,0,0,0-79.409,44.766,2.992,2.992,0,0,0-.492.64c-6.638,11.555-15.419,18.175-25.393,19.144-10.188.992-20.707-4.107-29.644-14.355-1.016-1.372-2.108-2.734-3.333-4.156l-.021-.027a2.93,2.93,0,0,0-.318-.364,71.695,71.695,0,1,0,4.074,89.2c8.868-9.958,19.293-14.875,29.37-13.844,9.935,1.015,18.671,7.618,25.265,19.1a2.922,2.922,0,0,0,.314.446c2.948,4.9,3.817,8.089,7.553,12.3.12-.008,139-6,148-6,5.116-6.511,6.391-10.38,9.691-18.286,10.875-25.135,17.525-27.221,19.3-27.262,2.491-.042,4.664,3.3,6.043,6.126a3,3,0,0,0,5.2.329c-.047-.131-.1-.26-.135-.4-1.143-4-2.411-8.086-2.45-12.188-.06-.836-.1-1.686-.091-2.575.023-1.966-.014-3.921.027-5.859-.23-.191-.457-.383-.673-.579-9.923-9.011-6.55-28.875,5.53-34.209,12.8-5.653,22.211-1.4,29.381,8.352.122.167,2.009,8.062,2.106,8.228,6.354-2.381,14.676-7.194,19.573-12.245l23.7-20.878L688.89,49.029a3,3,0,0,0,5.14-2.675Z" style="         fill: #5a38fd;       "/>
    <path d="M610.2,182.034a28.7,28.7,0,0,1-8.045-1.154,29.14,29.14,0,0,1-20.648-25.22,25.335,25.335,0,0,1,1.215-10.628l1.973-7.5,9.157-31.335a54.319,54.319,0,0,1-1.544-8.834,53.014,53.014,0,0,1,.33-12.119,3,3,0,1,1,5.939.852,47.012,47.012,0,0,0-.292,10.739,48.408,48.408,0,0,0,1.574,8.595,3.008,3.008,0,0,1-.012,1.643l-9.371,32.065-1.979,7.521c-.018.071-.04.142-.064.212a19.409,19.409,0,0,0-.951,8.235,22.879,22.879,0,0,0,44.74,4.53l2.511-8.034,2.864-9.871a3,3,0,0,1,3.156-2.151,47.8,47.8,0,0,0,8.484.026,47.085,47.085,0,0,0,42.87-50.95,47.415,47.415,0,0,0-4.472-16.3,3,3,0,0,1-.185-2.1,47.162,47.162,0,0,0,1.274-6.164,48.916,48.916,0,0,0,.281-10.558,37.777,37.777,0,0,0-.919-5.808,3,3,0,1,1,5.82-1.455,43.8,43.8,0,0,1,1.078,6.755,54.973,54.973,0,0,1-.317,11.885,52.713,52.713,0,0,1-1.147,5.864,53.417,53.417,0,0,1,4.564,17.355,53.087,53.087,0,0,1-48.328,57.456,53.587,53.587,0,0,1-7.071.142l-2.208,7.606-2.517,8.059A29.047,29.047,0,0,1,610.2,182.034Z" style="         fill: #222433;       "/>
    <g>
      <path d="M607.267,92.363A21.5,21.5,0,1,1,633.1,71.3" style="         fill: #fff;       "/>
      <path d="M607.27,95.364a3.049,3.049,0,0,1-.6-.061,24.5,24.5,0,1,1,29.434-24,3,3,0,0,1-6,0,18.5,18.5,0,1,0-22.231,18.124,3,3,0,0,1-.6,5.94Z" style="         fill: #222433;       "/>
    </g>
    <path d="M617.09,81.733a2.954,2.954,0,0,1-.7-.082l-14.98-3.572a3,3,0,0,1,1.392-5.836l8.109,1.934-5.36-9.074a3,3,0,1,1,5.166-3.051l8.952,15.156a3,3,0,0,1-2.583,4.525Z" style="         fill: #222433;       "/>
    <path d="M381.791,490.384c-.307,0-.576-.015-.8-.036-5.775-.53-10.526-6.011-10.59-12.217,0-9.326,3.1-48.678,4.722-62.092a3,3,0,1,1,5.956.723c-1.611,13.29-4.678,52.189-4.678,61.338.032,3.079,2.433,6.025,5.138,6.273,3.024.3,6.979-3.136,9.018-13.549,6.228-32.278,14.664-42.967,21.443-51.556,4.484-5.682,8.025-10.169,9.64-20.051a3,3,0,1,1,5.922.967c-1.865,11.414-6.03,16.69-10.852,22.8-6.376,8.079-14.311,18.133-20.263,48.985C393.2,488.526,385.2,490.384,381.791,490.384Z" style="         fill: #222433;       "/>
  </g>

            </g>
        </g>
    </g>
    
    <!-- ITEM 6 -->
    <g>
        <defs>
            <clipPath id="clip-path-id-viewbox-item-6">
                <rect x="0.0" y="0.0" width="147.908" height="142.217"/>
            </clipPath>
        </defs>
        <g transform="translate(400.0 477.0) rotate(0.0 25.0 24.0) scale(0.33804797576872114 0.33751239303318165)">
            <g clip-path="url(#clip-path-id-viewbox-item-6)" transform="translate(-0.0 -0.0)">
                
  
  <path d="M29.921,139.974q-.627-.37-1.227-.8a15.6,15.6,0,0,1-6.265-15.292l4.617-27.033A9.759,9.759,0,0,0,24.3,88.286L4.734,69.149a15.642,15.642,0,0,1,8.613-26.674l27.1-3.946a9.761,9.761,0,0,0,7.3-5.27l12.1-24.544a15.6,15.6,0,0,1,28.026.055l12.139,24.614a9.484,9.484,0,0,0,7.222,5.263L134.327,42.6a15.622,15.622,0,0,1,12.818,10.689,15.329,15.329,0,0,1-3.991,15.88l-19.6,19.174a9.667,9.667,0,0,0-2.763,8.579l4.578,27a15.616,15.616,0,0,1-22.706,16.464L78.381,127.624a9.71,9.71,0,0,0-8.982.028l-24.243,12.7A15.57,15.57,0,0,1,29.921,139.974Z" style="         fill: #5a38fd;       "/>

            </g>
        </g>
    </g>
    
    <!-- ITEM 7 -->
    <g>
        <defs>
            <clipPath id="clip-path-id-viewbox-item-7">
                <rect x="0.0" y="0.0" width="147.908" height="142.217"/>
            </clipPath>
        </defs>
        <g transform="translate(240.0 478.0) rotate(0.0 24.0 23.0) scale(0.3245260567379723 0.32344937665679907)">
            <g clip-path="url(#clip-path-id-viewbox-item-7)" transform="translate(-0.0 -0.0)">
                
  
  <path d="M29.921,139.974q-.627-.37-1.227-.8a15.6,15.6,0,0,1-6.265-15.292l4.617-27.033A9.759,9.759,0,0,0,24.3,88.286L4.734,69.149a15.642,15.642,0,0,1,8.613-26.674l27.1-3.946a9.761,9.761,0,0,0,7.3-5.27l12.1-24.544a15.6,15.6,0,0,1,28.026.055l12.139,24.614a9.484,9.484,0,0,0,7.222,5.263L134.327,42.6a15.622,15.622,0,0,1,12.818,10.689,15.329,15.329,0,0,1-3.991,15.88l-19.6,19.174a9.667,9.667,0,0,0-2.763,8.579l4.578,27a15.616,15.616,0,0,1-22.706,16.464L78.381,127.624a9.71,9.71,0,0,0-8.982.028l-24.243,12.7A15.57,15.57,0,0,1,29.921,139.974Z" style="         fill: #5a38fd;       "/>

            </g>
        </g>
    </g>
    
    <!-- ITEM 8 -->
    <g>
        <defs>
            <clipPath id="clip-path-id-viewbox-item-8">
                <rect x="0.0" y="0.0" width="214.2" height="50.3"/>
            </clipPath>
        </defs>
        <g transform="translate(166.0 322.0) rotate(0.0 173.0 41.0) scale(1.61531279178338 1.6302186878727636)">
            <g clip-path="url(#clip-path-id-viewbox-item-8)" transform="translate(-0.0 -0.0)">
                

<g>
	<path d="M211.2,5H6.7c-1.1,0-2-0.9-2-2s0.9-2,2-2h204.5c1.1,0,2,0.9,2,2S212.3,5,211.2,5z" style="fill:#82b1ff;"/>
</g>
<g>
	<path d="M211.2,23.2H6.7c-1.1,0-2-0.9-2-2s0.9-2,2-2h204.5c1.1,0,2,0.9,2,2S212.3,23.2,211.2,23.2z" style="fill:#82b1ff;"/>
</g>
<g>
	<path d="M211.2,42.3H6.7c-1.1,0-2-0.9-2-2s0.9-2,2-2h204.5c1.1,0,2,0.9,2,2S212.3,42.3,211.2,42.3z" style="fill:#82b1ff;"/>
</g>

            </g>
        </g>
    </g>
    
    <!-- ITEM 9 -->
    <g>
        <defs>
            <clipPath id="clip-path-id-viewbox-item-9">
                <rect x="0.0" y="0.0" width="261.1" height="261.1"/>
            </clipPath>
        </defs>
        <g transform="translate(261.0 178.0) rotate(0.0 79.5 79.5) scale(0.6089620834929146 0.6089620834929146)">
            <g clip-path="url(#clip-path-id-viewbox-item-9)" transform="translate(-0.0 -0.0)">
                

<path d="M27,0h207.1c14.9,0,27,8.5,27,19V165c0,10.5-12.1,19-27,19H27c-14.9,0-27-8.5-27-19V19C0,8.5,12.1,0,27,0z" style="fill:#5a38fd;"/>

            </g>
        </g>
    </g>
    
    <!-- ITEM 10 -->
    <g>
        <defs>
            <clipPath id="clip-path-id-viewbox-item-10">
                <rect x="0.0" y="0.0" width="105.972" height="180.943"/>
            </clipPath>
        </defs>
        <g transform="translate(150.0 621.0) rotate(0.0 -29.0 50.0) scale(-0.5473143849318688 0.5526602300171877)">
            <g clip-path="url(#clip-path-id-viewbox-item-10)" transform="translate(-0.0 -0.0)">
                <path d="M66.777,180.943a3,3,0,0,1-2.978-2.669l-14.9-134a3,3,0,0,1,5.963-.663l14.9,134a3,3,0,0,1-2.65,3.313A2.919,2.919,0,0,1,66.777,180.943Z" fill="#222433"/><path d="M21.01,48.587A21.062,21.062,0,0,1,4.626,14.357a20.927,20.927,0,0,1,14.139-7.77L77,.129a21.065,21.065,0,0,1,23.237,18.636A21.1,21.1,0,0,1,81.6,42h0L23.365,48.456A21.46,21.46,0,0,1,21.01,48.587ZM79.34,6a15.082,15.082,0,0,0-1.68.094L19.424,12.551A15.06,15.06,0,0,0,22.7,42.492l58.236-6.458A15.059,15.059,0,0,0,88.713,9.31,14.923,14.923,0,0,0,79.34,6Zm1.929,33.017h0ZM16.938,35.077a6.972,6.972,0,0,1-4.406-1.562A7.061,7.061,0,0,1,16.2,20.993h0l66.1-7.331a7.05,7.05,0,0,1,7.786,6.254A7.071,7.071,0,0,1,83.835,27.7l-66.1,7.331A7.309,7.309,0,0,1,16.938,35.077Zm-.077-8.121a1.087,1.087,0,0,0-.732.395,1.017,1.017,0,0,0-.221.765,1.084,1.084,0,0,0,.394.732,1.006,1.006,0,0,0,.767.222l66.1-7.332a1.051,1.051,0,0,0,.953-1.161,1.084,1.084,0,0,0-.394-.73,1,1,0,0,0-.767-.222Z" fill="#222433"/><path d="M88.881,103.688c-4.052,0-10.525-1.817-19.711-5.526-7.226-2.919-13.347-5.9-13.6-6.023A3,3,0,0,1,55,87.105c2.271-1.827,22.433-17.876,31.15-18.844a17.867,17.867,0,0,1,19.713,15.75,17.865,17.865,0,0,1-15.751,19.613h0A11.031,11.031,0,0,1,88.881,103.688ZM62.568,88.8c9.446,4.306,22.342,9.36,26.882,8.857h0a11.759,11.759,0,0,0,7.928-4.4A11.609,11.609,0,0,0,99.9,84.678,11.853,11.853,0,0,0,86.812,74.224C82.3,74.726,70.824,82.511,62.568,88.8Z" fill="#222433"/><path d="M25.576,110.637a17.787,17.787,0,0,1-11.18-3.928A17.509,17.509,0,0,1,7.9,94.87,17.877,17.877,0,0,1,23.65,75.161c3.907-.435,10.762,1.352,20.942,5.462,7.227,2.919,13.348,5.9,13.605,6.023a3,3,0,0,1,.565,5.034c-2.27,1.827-22.433,17.876-31.15,18.844h0A18.373,18.373,0,0,1,25.576,110.637ZM24.994,81.09a6.285,6.285,0,0,0-.682.034A11.868,11.868,0,0,0,13.864,94.215a11.545,11.545,0,0,0,4.283,7.812,11.884,11.884,0,0,0,8.8,2.534h0c4.516-.5,15.992-8.287,24.246-14.58C42.187,85.874,30.02,81.09,24.994,81.09Z" fill="#222433"/>
            </g>
        </g>
    </g>
    
    <!-- ITEM 11 -->
    <g>
        <defs>
            <clipPath id="clip-path-id-viewbox-item-11">
                <rect x="0.0" y="0.0" width="124.9" height="480.3"/>
            </clipPath>
        </defs>
        <g transform="translate(31.0 458.0) rotate(0.0 34.0 131.0) scale(0.544435548438751 0.545492400582969)">
            <g clip-path="url(#clip-path-id-viewbox-item-11)" transform="translate(-0.0 -0.0)">
                
  
  <g>
    <g>
      <circle cx="59.8" cy="32.3" r="29.3" style="         fill: #fff;       "/>
      <path d="M59.8,64.6A32.3,32.3,0,1,1,92.1,32.3,32.337,32.337,0,0,1,59.8,64.6ZM59.8,6A26.3,26.3,0,1,0,86.1,32.3,26.33,26.33,0,0,0,59.8,6Z" style="         fill: #222433;       "/>
    </g>
    <g>
      <circle cx="90.8" cy="94.8" r="29.3" style="         fill: #fff;       "/>
      <path d="M90.8,127.1a32.3,32.3,0,1,1,32.3-32.3A32.336,32.336,0,0,1,90.8,127.1Zm0-58.6a26.3,26.3,0,1,0,26.3,26.3A26.33,26.33,0,0,0,90.8,68.5Z" style="         fill: #222433;       "/>
    </g>
    <g>
      <circle cx="32.3" cy="96.4" r="29.3" style="         fill: #fff;       "/>
      <path d="M32.3,128.7A32.3,32.3,0,1,1,64.6,96.4,32.337,32.337,0,0,1,32.3,128.7Zm0-58.6A26.3,26.3,0,1,0,58.6,96.4,26.33,26.33,0,0,0,32.3,70.1Z" style="         fill: #222433;       "/>
    </g>
    <g>
      <circle cx="92.6" cy="159.9" r="29.3" style="         fill: #fff;       "/>
      <path d="M92.6,192.2a32.3,32.3,0,1,1,32.3-32.3A32.336,32.336,0,0,1,92.6,192.2Zm0-58.6a26.3,26.3,0,1,0,26.3,26.3A26.33,26.33,0,0,0,92.6,133.6Z" style="         fill: #222433;       "/>
    </g>
    <g>
      <circle cx="34.001" cy="161.4" r="29.3" style="         fill: #fff;       "/>
      <path d="M34,193.7a32.3,32.3,0,1,1,32.3-32.3A32.337,32.337,0,0,1,34,193.7Zm0-58.6a26.3,26.3,0,1,0,26.3,26.3A26.33,26.33,0,0,0,34,135.1Z" style="         fill: #222433;       "/>
    </g>
    <path d="M71.9,480.3a3,3,0,0,1-3-2.919L57.206,46.165a3,3,0,0,1,6-.164L74.9,477.219a3,3,0,0,1-2.918,3.08Z" style="         fill: #222433;       "/>
  </g>

            </g>
        </g>
    </g>
    
    <!-- ITEM 12 -->
    <g>
        <defs>
            <clipPath id="clip-path-id-viewbox-item-12">
                <rect x="0.0" y="0.0" width="42.0" height="145.16"/>
            </clipPath>
        </defs>
        <g transform="translate(29.0 642.0) rotate(349.7159641418236 11.0 39.0) scale(0.5238095238095238 0.537338109672086)">
            <g clip-path="url(#clip-path-id-viewbox-item-12)" transform="translate(-0.0 -0.0)">
                

<g>
	<g>
		<path d="M21,145.16c-1.657,0-3-1.343-3-3V21c0-1.657,1.343-3,3-3s3,1.343,3,3v121.16    C24,143.817,22.657,145.16,21,145.16z" style="fill:#222433;"/>
	</g>
	<g>
		<circle cx="21" cy="21" r="21" style="fill:#82B1FF;"/>
	</g>
</g>

            </g>
        </g>
    </g>
    
    <!-- ITEM 13 -->
    <g>
        <defs>
            <clipPath id="clip-path-id-crop-item-13">
                
          <rect transform="scale(2.0695652173913044 2.08030303030303)" x="0.0" y="0.0" width="45.0" height="132.0"/>
        
            </clipPath>
            
            <clipPath id="clip-path-id-viewbox-item-13">
                <rect x="0.0" y="0.0" width="95.2" height="411.9"/>
            </clipPath>
        </defs>
        <g clip-path="url(#clip-path-id-crop-item-13)" transform="translate(166.0 585.0) rotate(7.491102428604855 23.0 99.0) scale(0.4831932773109244 0.48069919883466866)">
            <g clip-path="url(#clip-path-id-viewbox-item-13)" transform="translate(-0.0 -0.0)">
                
  
  <g>
    <path d="M47.6,95.2A47.6,47.6,0,1,1,95.2,47.6,47.654,47.654,0,0,1,47.6,95.2ZM47.6,6A41.6,41.6,0,1,0,89.2,47.6,41.646,41.646,0,0,0,47.6,6Z" style="         fill: #222433;       "/>
    <path d="M47.6,95.2A47.6,47.6,0,1,1,95.2,47.6,47.654,47.654,0,0,1,47.6,95.2ZM47.6,6A41.6,41.6,0,1,0,89.2,47.6,41.646,41.646,0,0,0,47.6,6Z" style="         fill: #222433;       "/>
    <g>
      <circle cx="47.6" cy="47.6" r="44.6" style="         fill: #fff;       "/>
      <path d="M47.6,95.2A47.6,47.6,0,1,1,95.2,47.6,47.654,47.654,0,0,1,47.6,95.2ZM47.6,6A41.6,41.6,0,1,0,89.2,47.6,41.646,41.646,0,0,0,47.6,6Z" style="         fill: #222433;       "/>
    </g>
    <path d="M47.6,411.9a3,3,0,0,1-3-3V92.2a3,3,0,0,1,6,0V408.9A3,3,0,0,1,47.6,411.9Z" style="         fill: #222433;       "/>
    <path d="M47.6,57.6A47.63,47.63,0,0,1,4.459,29.973a3,3,0,1,1,5.449-2.51A41.616,41.616,0,0,0,47.6,51.6,41.76,41.76,0,0,0,85.334,27.549a3,3,0,0,1,5.44,2.531A47.781,47.781,0,0,1,47.6,57.6Z" style="         fill: #222433;       "/>
    <path d="M66.3,53.4a2.98,2.98,0,0,1-1.261-.279A47.83,47.83,0,0,1,37.4,9.9a47.778,47.778,0,0,1,.492-6.825,3,3,0,1,1,5.937.86A41.866,41.866,0,0,0,43.4,9.9,41.807,41.807,0,0,0,67.563,47.679,3,3,0,0,1,66.3,53.4Z" style="         fill: #222433;       "/>
  </g>

            </g>
        </g>
    </g>
    
    <!-- ITEM 14 -->
    <g>
        <defs>
            <clipPath id="clip-path-id-viewbox-item-14">
                <rect x="0.0" y="0.0" width="94.67" height="156.62"/>
            </clipPath>
        </defs>
        <g transform="translate(214.0 643.0) rotate(9.753990875421081 23.0 38.5) scale(0.4858983838597232 0.4916358064104201)">
            <g clip-path="url(#clip-path-id-viewbox-item-14)" transform="translate(-0.0 -0.0)">
                
  
  <g>
    <g>
      <path d="M82.81,3h0a8.87,8.87,0,0,0-8.87,8.87A8.87,8.87,0,0,0,65.07,3h0a8.87,8.87,0,0,0-8.87,8.87A8.87,8.87,0,0,0,47.34,3h0a8.87,8.87,0,0,0-8.87,8.87A8.87,8.87,0,0,0,29.6,3h0a8.87,8.87,0,0,0-8.86,8.87A8.87,8.87,0,0,0,11.87,3h0A8.87,8.87,0,0,0,3,11.87v37.1A44.34,44.34,0,0,0,47.34,93.3h0A44.33,44.33,0,0,0,91.67,48.97V11.87A8.87,8.87,0,0,0,82.81,3Z" style="         fill: #fff;       "/>
      <path d="M47.34,96.3A47.4,47.4,0,0,1,0,48.97V11.87A11.865,11.865,0,0,1,20.741,3.991a11.841,11.841,0,0,1,17.729,0,11.841,11.841,0,0,1,17.729,0,11.854,11.854,0,0,1,17.741,0A11.841,11.841,0,0,1,82.81,0h0A11.887,11.887,0,0,1,94.67,11.87v37.1A47.383,47.383,0,0,1,47.34,96.3ZM11.87,6A5.876,5.876,0,0,0,6,11.87v37.1a41.335,41.335,0,0,0,82.67,0V11.87A5.879,5.879,0,0,0,82.81,6h0a5.876,5.876,0,0,0-5.87,5.87,3,3,0,1,1-6,0,5.87,5.87,0,0,0-11.74,0,3,3,0,1,1-6,0,5.865,5.865,0,1,0-11.73,0,3,3,0,0,1-6,0,5.865,5.865,0,1,0-11.73,0,3,3,0,1,1-6,0A5.876,5.876,0,0,0,11.87,6Z" style="         fill: #222433;       "/>
    </g>
    <path d="M47.34,156.62a3,3,0,0,1-3-3V63.36a3,3,0,0,1,6,0v90.26A3,3,0,0,1,47.34,156.62Z" style="         fill: #222433;       "/>
    <path d="M73.94,49.01a3,3,0,0,1-3-3V11.16a3,3,0,1,1,6,0V46.01A3,3,0,0,1,73.94,49.01Z" style="         fill: #222433;       "/>
    <path d="M56.2,49.01a3,3,0,0,1-3-3V11.16a3,3,0,1,1,6,0V46.01A3,3,0,0,1,56.2,49.01Z" style="         fill: #222433;       "/>
    <path d="M38.47,49.01a3,3,0,0,1-3-3V11.16a3,3,0,1,1,6,0V46.01A3,3,0,0,1,38.47,49.01Z" style="         fill: #222433;       "/>
    <path d="M20.73,49.01a3,3,0,0,1-3-3V11.16a3,3,0,0,1,6,0V46.01A3,3,0,0,1,20.73,49.01Z" style="         fill: #222433;       "/>
  </g>

            </g>
        </g>
    </g>
    
    <!-- ITEM 15 -->
    <g>
        <defs>
            <clipPath id="clip-path-id-viewbox-item-15">
                <rect x="0.0" y="0.0" width="37.4" height="88.3"/>
            </clipPath>
        </defs>
        <g transform="translate(173.0 672.0) rotate(0.0 -10.0 24.0) scale(-0.5347593582887701 0.5436013590033976)">
            <g clip-path="url(#clip-path-id-viewbox-item-15)" transform="translate(-0.0 -0.0)">
                
  
  <g>
    <path d="M33.7,88.3a3,3,0,0,1-2.924-2.342L19.223,34.674a3,3,0,1,1,5.854-1.318L36.626,84.641A3,3,0,0,1,33.7,88.3Z" style="         fill: #222433;       "/>
    <g>
      <circle cx="18.7" cy="18.7" r="15.7" style="         fill: #fff;       "/>
      <path d="M18.7,37.4A18.7,18.7,0,1,1,37.4,18.7,18.721,18.721,0,0,1,18.7,37.4ZM18.7,6A12.7,12.7,0,1,0,31.4,18.7,12.715,12.715,0,0,0,18.7,6Z" style="         fill: #222433;       "/>
    </g>
  </g>

            </g>
        </g>
    </g>
    
    <!-- ITEM 16 -->
    <g>
        <defs>
            <clipPath id="clip-path-id-viewbox-item-16">
                <rect x="0.0" y="0.0" width="37.4" height="88.3"/>
            </clipPath>
        </defs>
        <g transform="translate(472.0 673.0) rotate(0.0 10.0 24.0) scale(0.5347593582887701 0.5436013590033976)">
            <g clip-path="url(#clip-path-id-viewbox-item-16)" transform="translate(-0.0 -0.0)">
                
  
  <g>
    <path d="M33.7,88.3a3,3,0,0,1-2.924-2.342L19.223,34.674a3,3,0,1,1,5.854-1.318L36.626,84.641A3,3,0,0,1,33.7,88.3Z" style="         fill: #222433;       "/>
    <g>
      <circle cx="18.7" cy="18.7" r="15.7" style="         fill: #fff;       "/>
      <path d="M18.7,37.4A18.7,18.7,0,1,1,37.4,18.7,18.721,18.721,0,0,1,18.7,37.4ZM18.7,6A12.7,12.7,0,1,0,31.4,18.7,12.715,12.715,0,0,0,18.7,6Z" style="         fill: #222433;       "/>
    </g>
  </g>

            </g>
        </g>
    </g>
    
    <!-- ITEM 17 -->
    <g>
        <defs>
            <clipPath id="clip-path-id-crop-item-17">
                
          <rect transform="scale(1.9404 1.9343266666666667)" x="0.0" y="0.0" width="80.0" height="116.0"/>
        
            </clipPath>
            
            <clipPath id="clip-path-id-viewbox-item-17">
                <rect x="0.0" y="0.0" width="155.232" height="290.149"/>
            </clipPath>
        </defs>
        <g clip-path="url(#clip-path-id-crop-item-17)" transform="translate(494.0 600.0) rotate(353.8991669362695 40.0 75.0) scale(0.5153576582148011 0.5169757607298319)">
            <g clip-path="url(#clip-path-id-viewbox-item-17)" transform="translate(-0.0 -0.0)">
                

<g>
	<g>
		<path d="M3,290.15c-0.333,0-0.673-0.056-1.005-0.174c-1.561-0.555-2.377-2.27-1.822-3.832l62.538-175.95    c0.555-1.561,2.271-2.377,3.831-1.822c1.561,0.555,2.377,2.27,1.822,3.832L5.827,288.154C5.39,289.383,4.234,290.15,3,290.15z" style="fill:#222433;"/>
	</g>
	<g>
		<path d="M149.068,36.169c-6.06-3.672-13.95-1.735-17.621,4.326c-0.003,0.005-0.006,0.01-0.009,0.015    c3.673-6.075,1.725-13.977-4.35-17.65c-6.075-3.673-13.977-1.725-17.65,4.35l-33.82,55.57l8.83-64.45    c0.867-7.038-4.136-13.446-11.174-14.313c-6.878-0.847-13.187,3.916-14.256,10.763c1.07-7.01-3.745-13.56-10.755-14.63    s-13.56,3.745-14.63,10.755c-0.016,0.105-0.031,0.21-0.044,0.315l-1.19,8.47l-8,57.15c-2.833,20.208,6.492,40.191,23.8,51    l-0.09,0.13l0,0c6.23,3.716,13.132,6.17,20.31,7.22l0,0v-0.16c20.237,2.538,40.073-7.069,50.63-24.52l29.87-49.37l4.43-7.32    c3.694-6.047,1.787-13.943-4.259-17.637C149.082,36.178,149.075,36.173,149.068,36.169z" style="fill:#82B1FF;"/>
	</g>
	<g>
		<path d="M52.202,66.75c-0.138,0-0.278-0.01-0.419-0.029c-1.641-0.229-2.785-1.746-2.556-3.387l6.99-49.99    c0.229-1.641,1.742-2.784,3.387-2.556c1.641,0.229,2.785,1.746,2.556,3.387l-6.99,49.99C54.959,65.665,53.674,66.75,52.202,66.75z    " style="fill:#222433;"/>
	</g>
	<g>
		<path d="M105.835,85.819c-0.529,0-1.064-0.14-1.55-0.434c-1.417-0.858-1.872-2.702-1.014-4.12l26.13-43.19    c0.858-1.417,2.702-1.871,4.12-1.014c1.417,0.858,1.872,2.702,1.014,4.12l-26.13,43.19    C107.841,85.304,106.85,85.819,105.835,85.819z" style="fill:#222433;"/>
	</g>
	<g>
		<path d="M57.948,135.56c-0.333,0-0.673-0.056-1.005-0.174c-1.561-0.555-2.376-2.271-1.822-3.832l17.7-49.78    c0.555-1.561,2.271-2.377,3.832-1.822c1.561,0.555,2.377,2.271,1.822,3.832l-17.7,49.78    C60.338,134.793,59.182,135.56,57.948,135.56z" style="fill:#222433;"/>
	</g>
</g>

            </g>
        </g>
    </g>
    
    <!-- ITEM 18 -->
    <g>
        <defs>
            <clipPath id="clip-path-id-crop-item-18">
                
          <rect transform="scale(1.9135483870967742 1.8887218045112781)" x="0.0" y="0.0" width="31.0" height="101.0"/>
        
            </clipPath>
            
            <clipPath id="clip-path-id-viewbox-item-18">
                <rect x="0.0" y="0.0" width="59.32" height="251.2"/>
            </clipPath>
        </defs>
        <g clip-path="url(#clip-path-id-crop-item-18)" transform="translate(1121.0 615.0) rotate(20.59906282393227 15.5 66.5) scale(0.5225893459204316 0.5294585987261147)">
            <g clip-path="url(#clip-path-id-viewbox-item-18)" transform="translate(-0.0 -0.0)">
                

<g>
	<g>
		<path d="M56.316,251.2c-1.481,0-2.769-1.097-2.97-2.604l-29.46-221.34c-0.219-1.643,0.936-3.151,2.578-3.37    c1.645-0.218,3.151,0.936,3.37,2.578l29.46,221.34c0.219,1.643-0.936,3.151-2.578,3.37C56.582,251.192,56.448,251.2,56.316,251.2z    " style="fill:#222433;"/>
	</g>
	<g>
		<circle cx="26.86" cy="26.86" r="26.86" style="fill:#82B1FF;"/>
	</g>
</g>

            </g>
        </g>
    </g>
    
    <!-- ITEM 19 -->
    <g>
        <defs>
            <clipPath id="clip-path-id-viewbox-item-19">
                <rect x="0.0" y="0.0" width="59.624" height="59.622"/>
            </clipPath>
        </defs>
        <g transform="translate(1131.0 431.0) rotate(0.0 -15.0 15.0) scale(-0.5031530927143432 0.5031699708161417)">
            <g clip-path="url(#clip-path-id-viewbox-item-19)" transform="translate(-0.0 -0.0)">
                

<g>
	<g>
		<path d="M9.864,0h11.91c5.44-0.001,9.851,4.408,9.852,9.848c0,1.532-0.357,3.043-1.042,4.412l-14.77,29.55    L1.045,14.26C-1.391,9.396,0.578,3.478,5.442,1.042C6.815,0.355,8.329-0.002,9.864,0z" style="fill:#82B1FF;"/>
	</g>
	<g>
		<path d="M59.624,37.85v11.91c0.007,5.44-4.398,9.856-9.838,9.862c-1.535,0.002-3.05-0.355-4.422-1.042l-29.55-14.77    l29.55-14.78c4.873-2.43,10.794-0.449,13.224,4.424C59.269,34.819,59.624,36.324,59.624,37.85z" style="fill:#82B1FF;"/>
	</g>
</g>

            </g>
        </g>
    </g>
    
    <!-- ITEM 20 -->
    <g>
        <defs>
            <clipPath id="clip-path-id-viewbox-item-20">
                <rect x="0.0" y="0.0" width="65.017" height="66.458"/>
            </clipPath>
        </defs>
        <g transform="translate(598.0 582.0) rotate(0.0 -15.5 15.5) scale(-0.4767983758094037 0.4664600198621686)">
            <g clip-path="url(#clip-path-id-viewbox-item-20)" transform="translate(-0.0 -0.0)">
                

<g>
	<g>
		<path d="M3.252,53.812l-0.25-11.91c-0.116-5.439,4.198-9.942,9.637-10.059c1.531-0.033,3.049,0.292,4.433,0.949    l29.85,14.14l-29.22,15.39c-4.819,2.536-10.781,0.686-13.318-4.133C3.673,56.837,3.286,55.339,3.252,53.812z" style="fill:#FFFFFF;"/>
		<path d="M13.125,66.463c-1.281,0-2.568-0.193-3.827-0.584c-3.281-1.018-5.969-3.253-7.568-6.293    c-0.923-1.753-1.434-3.728-1.477-5.708c0-0.001,0-0.002,0-0.002l-0.25-11.91c-0.073-3.43,1.194-6.685,3.568-9.164    c2.375-2.479,5.572-3.884,9.003-3.957c1.998-0.043,3.988,0.385,5.784,1.238L48.206,44.22c1.027,0.487,1.691,1.512,1.715,2.648    c0.024,1.136-0.596,2.188-1.602,2.718L19.1,64.976C17.226,65.963,15.184,66.463,13.125,66.463z M6.252,53.749    c0.023,1.056,0.295,2.108,0.788,3.042c0.854,1.622,2.287,2.814,4.037,3.357c1.751,0.543,3.607,0.372,5.229-0.481l23.91-12.593    L15.788,35.503c-0.958-0.455-2.012-0.681-3.085-0.661c-1.829,0.039-3.533,0.788-4.799,2.11c-1.266,1.321-1.941,3.056-1.902,4.885    L6.252,53.749z" style="fill:#222433;"/>
	</g>
	<g>
		<path d="M40.072,3.252l11.91-0.25c5.445-0.096,9.937,4.239,10.033,9.684c0.027,1.515-0.296,3.016-0.943,4.386    l-14.15,29.86l-15.39-29.25c-2.525-4.825-0.661-10.783,4.164-13.308C37.049,3.666,38.546,3.282,40.072,3.252z" style="fill:#FFFFFF;"/>
		<path d="M46.922,49.932c-1.112,0-2.135-0.616-2.654-1.603l-15.39-29.25c-3.291-6.289-0.855-14.075,5.428-17.363    c1.753-0.918,3.726-1.424,5.704-1.463l11.91-0.25c7.1-0.123,12.97,5.54,13.096,12.63c0.035,1.966-0.391,3.944-1.23,5.721    L49.633,48.216c-0.487,1.027-1.512,1.691-2.648,1.715C46.964,49.932,46.943,49.932,46.922,49.932z M52.159,6    c-0.041,0-0.082,0-0.123,0.001l-11.9,0.25c-0.001,0-0.002,0-0.003,0c-1.056,0.021-2.108,0.291-3.044,0.781    c-3.352,1.754-4.651,5.907-2.897,9.259l12.592,23.932l11.579-24.435c0.446-0.945,0.673-2,0.655-3.049    C58.95,8.998,55.885,6,52.159,6z M40.072,3.252h0.01H40.072z" style="fill:#222433;"/>
	</g>
</g>

            </g>
        </g>
    </g>
    
    <!-- ITEM 21 -->
    <g>
        <defs>
            <clipPath id="clip-path-id-viewbox-item-21">
                <rect x="0.0" y="0.0" width="59.624" height="59.622"/>
            </clipPath>
        </defs>
        <g transform="translate(257.0 618.0) rotate(332.2156883939062 12.0 12.0) scale(0.4025224741714746 0.40253597665291335)">
            <g clip-path="url(#clip-path-id-viewbox-item-21)" transform="translate(-0.0 -0.0)">
                

<g>
	<g>
		<path d="M9.864,0h11.91c5.44-0.001,9.851,4.408,9.852,9.848c0,1.532-0.357,3.043-1.042,4.412l-14.77,29.55    L1.045,14.26C-1.391,9.396,0.578,3.478,5.442,1.042C6.815,0.355,8.329-0.002,9.864,0z" style="fill:#82B1FF;"/>
	</g>
	<g>
		<path d="M59.624,37.85v11.91c0.007,5.44-4.398,9.856-9.838,9.862c-1.535,0.002-3.05-0.355-4.422-1.042l-29.55-14.77    l29.55-14.78c4.873-2.43,10.794-0.449,13.224,4.424C59.269,34.819,59.624,36.324,59.624,37.85z" style="fill:#82B1FF;"/>
	</g>
</g>

            </g>
        </g>
    </g>
    
    <!-- ITEM 22 -->
    <g>
        <defs>
            <clipPath id="clip-path-id-viewbox-item-22">
                <rect x="0.0" y="0.0" width="156.119" height="115.26"/>
            </clipPath>
        </defs>
        <g transform="translate(1012.0 123.0) rotate(0.0 35.0 25.5) scale(0.4483759183699614 0.44247787610619466)">
            <g clip-path="url(#clip-path-id-viewbox-item-22)" transform="translate(-0.0 -0.0)">
                
  
  <g>
    <g>
      <path d="M74.177,57.173c-.767.088-15.146-3.531-17.424-4.226L81.411,4.479A2.705,2.705,0,0,1,83.822,3h.037a2.7,2.7,0,0,1,2.407,1.546L98.8,30.967c.025.054.049.108.071.162,1.992,5.021,1.7,10.618.228,16.1C98.763,47.4,82.44,56.222,74.177,57.173Z" style="         fill: #fff;       "/>
      <path d="M74.365,60.161c-2.469,0-18.337-4.3-18.488-4.345a3,3,0,0,1-1.8-4.23L78.737,3.118a5.706,5.706,0,0,1,10.24.141l12.535,26.423c.049.1.093.205.136.308,2.056,5.186,2.169,11.237.349,18.015a3,3,0,0,1-1.537,1.9l-.092.049c-4.079,2.165-18,9.3-25.848,10.2h0A1.354,1.354,0,0,1,74.365,60.161Zm-.188-2.988h0Zm-.336-2.981h0Zm.509-.008ZM61.1,51.018c4.48,1.16,11.443,2.859,13.044,3.135,5.245-.727,14.753-4.978,22.37-8.955,1.151-4.981,1.007-9.337-.432-12.963L83.814,6.373Z" style="         fill: #222433;       "/>
    </g>
    <g>
      <path d="M103.287,75.349l41.613-15a6.158,6.158,0,0,1,7.9,7.7h0a6.379,6.379,0,0,1-3.8,3.9l-10,3.5,8.5,1.4a6.124,6.124,0,1,1-1.9,12.1l-27.328-4.325" style="         fill: #fff;       "/>
      <path d="M146.575,92.026a9.269,9.269,0,0,1-1.443-.113L117.8,87.587a3,3,0,0,1,.937-5.926l27.327,4.325a3.194,3.194,0,0,0,2.69-.835,3,3,0,0,0,.8-3.132,3.122,3.122,0,0,0-2.535-2.207l-8.513-1.4a3,3,0,0,1-.5-5.791l9.944-3.481a3.392,3.392,0,0,0,2-2.036,3.036,3.036,0,0,0-.792-3.186,3.089,3.089,0,0,0-3.259-.738L104.3,78.171a3,3,0,1,1-2.035-5.644l41.614-15A9.157,9.157,0,0,1,155.646,69,9.358,9.358,0,0,1,150.4,74.62a9.133,9.133,0,0,1,4.9,5.629,9.027,9.027,0,0,1-2.433,9.28A9.206,9.206,0,0,1,146.575,92.026Z" style="         fill: #222433;       "/>
    </g>
    <polygon points="23.6 63.749 0 66.049 23.1 75.349 23.6 63.749" style="         fill: #222433;       "/>
    <g>
      <path d="M34.1,85.549a23.509,23.509,0,0,1,10.3,9.2h0a36.847,36.847,0,0,0,10.5,11c15.1,10.6,35.8,7.9,48.5-5.5l14.9-15.8-44.7-28.8a46.528,46.528,0,0,1-14.4-8.8A23.337,23.337,0,0,0,23,74.949,23.679,23.679,0,0,0,34.1,85.549Z" style="         fill: #fff;       "/>
      <path d="M75.627,115.212a38.948,38.948,0,0,1-22.45-7.007A39.606,39.606,0,0,1,41.854,96.334a20.493,20.493,0,0,0-8.967-8.041l-.033-.015a26.651,26.651,0,0,1-12.5-11.923A26.329,26.329,0,0,1,61.19,44.6a43.632,43.632,0,0,0,13.469,8.238,3.032,3.032,0,0,1,.566.285l44.7,28.8a3,3,0,0,1,.557,4.58l-14.9,15.8A41.339,41.339,0,0,1,75.627,115.212Zm-40.3-32.4A26.456,26.456,0,0,1,46.944,93.159a33.7,33.7,0,0,0,9.648,10.112c13.64,9.577,32.815,7.38,44.631-5.085l12.419-13.169L72.238,58.34A49.679,49.679,0,0,1,57.214,49.1,20.337,20.337,0,0,0,25.662,73.565,20.669,20.669,0,0,0,35.33,82.812Z" style="         fill: #222433;       "/>
    </g>
    <circle cx="35.9" cy="66.749" r="6" style="         fill: #222433;       "/>
    <path d="M53.358,79.517A13.3,13.3,0,0,1,51,77.249c-.055-.074-.107-.15-.155-.228a15.48,15.48,0,0,1-1.976-11.312,9.928,9.928,0,0,0-1.072-7.1c-.16-.224-.3-.447-.442-.671-.081-.129-.158-.26-.255-.389-.048-.063-.094-.129-.136-.2a9.276,9.276,0,0,0-12.772-2.959l-11.5,7.2a3,3,0,0,1-4.518-3.2A25.733,25.733,0,0,1,28.221,43.133a26.189,26.189,0,0,1,32.992,1.492,41.674,41.674,0,0,0,11.9,7.608l54.451-42.156a3,3,0,0,1,4.837,2.372v32.4c0,.066,0,.131-.007.2-1.358,20.7-33.2,35.272-36.568,36.755a36.487,36.487,0,0,1-19.762,5.848A35.69,35.69,0,0,1,53.358,79.517Z" style="         fill: #5a38fd;       "/>
    <path d="M71.875,58.17a3,3,0,0,1-.21-4.9l55.9-43.2a3,3,0,0,1,4.835,2.374v12.3a31.547,31.547,0,0,1-15.591,27.092l-12.19,7.095A30.993,30.993,0,0,1,88.9,63.223,31.4,31.4,0,0,1,71.875,58.17Z" style="         fill: #82b1ff;       "/>
  </g>

            </g>
        </g>
    </g>
    
    <!-- ITEM 23 -->
    <g>
        <defs>
            <clipPath id="clip-path-id-viewbox-item-23">
                <rect x="0.0" y="0.0" width="80.401" height="131.202"/>
            </clipPath>
        </defs>
        <g transform="translate(558.0 653.0) rotate(10.515242388003049 20.0 32.5) scale(0.49750624992226467 0.4954192771451655)">
            <g clip-path="url(#clip-path-id-viewbox-item-23)" transform="translate(-0.0 -0.0)">
                
  
  <g>
    <g>
      <path d="M16.8,60.1,16.2,51A34.42,34.42,0,0,0,7,29.7L3,25.4l74.4-4.9L74,25.3a34.363,34.363,0,0,0-6.3,22.4l.6,9.1A25.75,25.75,0,0,1,44.31,84.2H44.3A25.794,25.794,0,0,1,16.808,60.224Z" transform="translate(0 0.002)" style="         fill: #fff;       "/>
      <path d="M42.5,87.262A28.8,28.8,0,0,1,13.815,60.428l-.009-.131-.6-9.1a31.5,31.5,0,0,0-8.4-19.448l-4-4.306a3,3,0,0,1,2-5.037l74.4-4.9a3,3,0,0,1,2.646,4.728l-3.4,4.8a31.441,31.441,0,0,0-5.756,20.452l.6,9.117A28.751,28.751,0,0,1,44.536,87.19l-.032,0h0Q43.5,87.262,42.5,87.262ZM19.793,59.9l0,.064A22.793,22.793,0,0,0,44.072,81.209l.04,0h0A22.751,22.751,0,0,0,65.307,57l-.6-9.1a37.431,37.431,0,0,1,6.605-23.989L9.494,27.979a37.513,37.513,0,0,1,9.7,22.829Z" transform="translate(0 0.002)" style="         fill: #222433;       "/>
    </g>
    <path d="M47.1,131.2a3,3,0,0,1-2.991-2.8l-4.9-73.3a3,3,0,1,1,5.986-.4l4.9,73.3a3,3,0,0,1-2.793,3.193C47.231,131.2,47.164,131.2,47.1,131.2Z" transform="translate(0 0.002)" style="         fill: #222433;       "/>
    <g>
      <path d="M40.2,25.51a2.987,2.987,0,0,1-2.008-.773l-15.2-13.71a3,3,0,1,1,4.018-4.455l15.2,13.71A3,3,0,0,1,40.2,25.51Z" transform="translate(0 0.002)" style="         fill: #222433;       "/>
      <path d="M40.2,25.51a3,3,0,0,1-2.992-2.785l-1.4-19.51a3,3,0,1,1,5.984-.43l.87,12.118L50.9,5.073a3,3,0,0,1,4.6,3.854l-13,15.51A3,3,0,0,1,40.2,25.51Z" transform="translate(0 0.002)" style="         fill: #222433;       "/>
    </g>
  </g>

            </g>
        </g>
    </g>
    
    <!-- ITEM 24 -->
    <g>
        <defs>
            <clipPath id="clip-path-id-viewbox-item-24">
                <rect x="0.0" y="0.0" width="59.624" height="59.622"/>
            </clipPath>
        </defs>
        <g transform="translate(1000.0 418.0) rotate(346.97499715875415 11.5 11.5) scale(0.3857507044143298 0.3857636442923753)">
            <g clip-path="url(#clip-path-id-viewbox-item-24)" transform="translate(-0.0 -0.0)">
                

<g>
	<g>
		<path d="M9.864,0h11.91c5.44-0.001,9.851,4.408,9.852,9.848c0,1.532-0.357,3.043-1.042,4.412l-14.77,29.55    L1.045,14.26C-1.391,9.396,0.578,3.478,5.442,1.042C6.815,0.355,8.329-0.002,9.864,0z" style="fill:#82B1FF;"/>
	</g>
	<g>
		<path d="M59.624,37.85v11.91c0.007,5.44-4.398,9.856-9.838,9.862c-1.535,0.002-3.05-0.355-4.422-1.042l-29.55-14.77    l29.55-14.78c4.873-2.43,10.794-0.449,13.224,4.424C59.269,34.819,59.624,36.324,59.624,37.85z" style="fill:#82B1FF;"/>
	</g>
</g>

            </g>
        </g>
    </g>
    
    <!-- ITEM 25 -->
    <g>
        <defs>
            <clipPath id="clip-path-id-viewbox-item-25">
                <rect x="0.0" y="0.0" width="67.356" height="67.38"/>
            </clipPath>
        </defs>
        <g transform="translate(602.0 208.0) rotate(0.0 12.5 12.5) scale(0.3711621830274957 0.37102997922232117)">
            <g clip-path="url(#clip-path-id-viewbox-item-25)" transform="translate(-0.0 -0.0)">
                

<g>
	<path d="M35.808,1.595l5.44,18c0.95,3.128,3.4,5.575,6.53,6.52l18,5.45c1.174,0.355,1.837,1.594,1.483,2.767   c-0.215,0.711-0.771,1.268-1.483,1.483l-18,5.45c-3.13,0.945-5.58,3.392-6.53,6.52l-5.44,18c-0.346,1.176-1.579,1.85-2.756,1.504   c-0.725-0.213-1.291-0.78-1.504-1.504l-5.45-18c-0.943-3.129-3.391-5.577-6.52-6.52l-18-5.45c-1.174-0.355-1.837-1.594-1.483-2.767   c0.215-0.711,0.771-1.268,1.483-1.483l18-5.45c3.129-0.943,5.577-3.391,6.52-6.52l5.45-18c0.346-1.176,1.579-1.85,2.756-1.504   C35.028,0.303,35.595,0.87,35.808,1.595z" style="fill:#82B1FF;"/>
</g>

            </g>
        </g>
    </g>
    
    <!-- ITEM 26 -->
    <g>
        <defs>
            <clipPath id="clip-path-id-viewbox-item-26">
                <rect x="0.0" y="0.0" width="67.356" height="67.38"/>
            </clipPath>
        </defs>
        <g transform="translate(665.0 105.0) rotate(0.0 17.5 17.5) scale(0.519627056238494 0.5194419709112497)">
            <g clip-path="url(#clip-path-id-viewbox-item-26)" transform="translate(-0.0 -0.0)">
                

<g>
	<path d="M35.808,1.595l5.44,18c0.95,3.128,3.4,5.575,6.53,6.52l18,5.45c1.174,0.355,1.837,1.594,1.483,2.767   c-0.215,0.711-0.771,1.268-1.483,1.483l-18,5.45c-3.13,0.945-5.58,3.392-6.53,6.52l-5.44,18c-0.346,1.176-1.579,1.85-2.756,1.504   c-0.725-0.213-1.291-0.78-1.504-1.504l-5.45-18c-0.943-3.129-3.391-5.577-6.52-6.52l-18-5.45c-1.174-0.355-1.837-1.594-1.483-2.767   c0.215-0.711,0.771-1.268,1.483-1.483l18-5.45c3.129-0.943,5.577-3.391,6.52-6.52l5.45-18c0.346-1.176,1.579-1.85,2.756-1.504   C35.028,0.303,35.595,0.87,35.808,1.595z" style="fill:#82B1FF;"/>
</g>

            </g>
        </g>
    </g>
    
    <!-- ITEM 27 -->
    <g>
        <defs>
            <clipPath id="clip-path-id-viewbox-item-27">
                <rect x="0.0" y="0.0" width="67.356" height="67.38"/>
            </clipPath>
        </defs>
        <g transform="translate(48.0 209.0) rotate(0.0 10.5 10.5) scale(0.31177623374309643 0.3116651825467498)">
            <g clip-path="url(#clip-path-id-viewbox-item-27)" transform="translate(-0.0 -0.0)">
                

<g>
	<path d="M35.808,1.595l5.44,18c0.95,3.128,3.4,5.575,6.53,6.52l18,5.45c1.174,0.355,1.837,1.594,1.483,2.767   c-0.215,0.711-0.771,1.268-1.483,1.483l-18,5.45c-3.13,0.945-5.58,3.392-6.53,6.52l-5.44,18c-0.346,1.176-1.579,1.85-2.756,1.504   c-0.725-0.213-1.291-0.78-1.504-1.504l-5.45-18c-0.943-3.129-3.391-5.577-6.52-6.52l-18-5.45c-1.174-0.355-1.837-1.594-1.483-2.767   c0.215-0.711,0.771-1.268,1.483-1.483l18-5.45c3.129-0.943,5.577-3.391,6.52-6.52l5.45-18c0.346-1.176,1.579-1.85,2.756-1.504   C35.028,0.303,35.595,0.87,35.808,1.595z" style="fill:#82B1FF;"/>
</g>

            </g>
        </g>
    </g>
    
    <!-- ITEM 28 -->
    <g>
        <defs>
            <clipPath id="clip-path-id-viewbox-item-28">
                <rect x="0.0" y="0.0" width="147.908" height="142.217"/>
            </clipPath>
        </defs>
        <g transform="translate(159.0 478.0) rotate(0.0 25.0 24.0) scale(0.33804797576872114 0.33751239303318165)">
            <g clip-path="url(#clip-path-id-viewbox-item-28)" transform="translate(-0.0 -0.0)">
                
  
  <path d="M29.921,139.974q-.627-.37-1.227-.8a15.6,15.6,0,0,1-6.265-15.292l4.617-27.033A9.759,9.759,0,0,0,24.3,88.286L4.734,69.149a15.642,15.642,0,0,1,8.613-26.674l27.1-3.946a9.761,9.761,0,0,0,7.3-5.27l12.1-24.544a15.6,15.6,0,0,1,28.026.055l12.139,24.614a9.484,9.484,0,0,0,7.222,5.263L134.327,42.6a15.622,15.622,0,0,1,12.818,10.689,15.329,15.329,0,0,1-3.991,15.88l-19.6,19.174a9.667,9.667,0,0,0-2.763,8.579l4.578,27a15.616,15.616,0,0,1-22.706,16.464L78.381,127.624a9.71,9.71,0,0,0-8.982.028l-24.243,12.7A15.57,15.57,0,0,1,29.921,139.974Z" style="         fill: #5a38fd;       "/>

            </g>
        </g>
    </g>
    
    <!-- ITEM 29 -->
    <g>
        <defs>
            <clipPath id="clip-path-id-viewbox-item-29">
                <rect x="0.0" y="0.0" width="222.0" height="178.0"/>
            </clipPath>
        </defs>
        <g transform="translate(465.0 472.0) rotate(0.0 35.5 28.5) scale(0.31981981981981983 0.3202247191011236)">
            <g clip-path="url(#clip-path-id-viewbox-item-29)" transform="translate(-0.0 -0.0)">
                

<g>
	<path d="M81.9,160c-0.4-0.2-0.8-0.5-1.2-0.8c-4.8-3.5-7.3-9.4-6.3-15.3l4.6-27c0.5-3.1-0.5-6.3-2.7-8.6L56.7,89.1   c-6.2-6-6.3-15.9-0.3-22.1c2.4-2.5,5.5-4.1,8.9-4.6l27.1-3.9c3.1-0.5,5.9-2.4,7.3-5.3l12.1-24.5c3.8-7.7,13.2-10.9,20.9-7.1   c3.1,1.5,5.6,4.1,7.1,7.2L152,53.4c1.4,2.8,4.1,4.8,7.2,5.3l27.1,4c6,0.8,11,5,12.8,10.7c1.8,5.6,0.3,11.8-4,15.9l-19.6,19.2   c-2.3,2.2-3.3,5.4-2.8,8.6l4.6,27c1.5,8.5-4.2,16.6-12.7,18.1c-3.4,0.6-6.9,0-10-1.6l-24.3-12.8c-2.8-1.5-6.2-1.4-9,0l-24.2,12.7   C92.4,162.9,86.6,162.7,81.9,160z" style="fill:#FFFFFF;"/>
	<path d="M162,167.2c-3.4,0-6.7-0.8-9.7-2.4L128.1,152c-1.3-0.7-3-0.7-4.3,0l-24.3,12.7c-6.3,3.3-14,3.1-20.1-0.5   c-0.5-0.3-1.1-0.7-1.6-1c-6.3-4.6-9.6-12.5-8.3-20.2l4.6-27c0.3-1.5-0.2-3.1-1.3-4.2L53.2,92.7c-3.9-3.8-6.2-9-6.2-14.5   s2-10.7,5.9-14.7c3.1-3.2,7.3-5.3,11.7-6l27.1-3.9c1.5-0.2,2.9-1.2,3.6-2.6l12.1-24.5c5-10.2,17.4-14.4,27.6-9.4   c4.1,2,7.4,5.4,9.4,9.5l12.1,24.6c0.7,1.4,1.9,2.3,3.4,2.5l27.1,4c7.8,1,14.4,6.6,16.9,14.1c2.4,7.4,0.3,15.7-5.3,21L179,111.9   c-1.1,1.1-1.6,2.6-1.3,4.1l4.6,27c0.9,5.4-0.3,10.9-3.5,15.4c-3.2,4.5-7.9,7.5-13.3,8.4C164.3,167.1,163.2,167.2,162,167.2z    M125.9,141.5c2.3,0,4.6,0.5,6.8,1.6L157,156c2.1,1.1,4.5,1.5,6.8,1.1c2.8-0.5,5.2-2,6.9-4.3c1.6-2.3,2.3-5.1,1.8-7.9l-4.6-27   c-0.8-4.7,0.7-9.6,4.2-13l19.6-19.2c2.9-2.8,4-7,2.7-10.7c-1.3-3.9-4.7-6.8-8.7-7.3l-27.2-4c-4.8-0.7-8.9-3.7-11-8L135.4,31   c-1-2.1-2.8-3.9-4.9-4.9c-5.2-2.6-11.6-0.4-14.2,4.8l-12.1,24.5c-2.2,4.3-6.3,7.3-11.1,8l-27.1,3.9c-2.3,0.3-4.4,1.4-6,3.1   c-2,2-3.1,4.7-3,7.6c0,2.8,1.2,5.5,3.2,7.5l19.6,19.1c3.4,3.4,5,8.2,4.2,13l-4.6,27c-0.7,4,1,8,4.3,10.4c0.3,0.2,0.6,0.4,0.8,0.5   c0,0,0,0,0,0c3.1,1.9,7.1,2,10.3,0.3l24.3-12.7C121.2,142.1,123.6,141.5,125.9,141.5z" style="fill:#222433;"/>
</g>

            </g>
        </g>
    </g>
    
    <!-- ITEM 30 -->
    <g>
        <defs>
            <clipPath id="clip-path-id-crop-item-30">
                
          <rect transform="scale(1.9135483870967742 1.9030303030303028)" x="0.0" y="0.0" width="30.0" height="81.0"/>
        
            </clipPath>
            
            <clipPath id="clip-path-id-viewbox-item-30">
                <rect x="0.0" y="0.0" width="59.32" height="251.2"/>
            </clipPath>
        </defs>
        <g clip-path="url(#clip-path-id-crop-item-30)" transform="translate(420.0 639.0) rotate(0.0 15.5 66.0) scale(0.5225893459204316 0.5254777070063694)">
            <g clip-path="url(#clip-path-id-viewbox-item-30)" transform="translate(-0.0 -0.0)">
                

<g>
	<g>
		<path d="M56.316,251.2c-1.481,0-2.769-1.097-2.97-2.604l-29.46-221.34c-0.219-1.643,0.936-3.151,2.578-3.37    c1.645-0.218,3.151,0.936,3.37,2.578l29.46,221.34c0.219,1.643-0.936,3.151-2.578,3.37C56.582,251.192,56.448,251.2,56.316,251.2z    " style="fill:#222433;"/>
	</g>
	<g>
		<circle cx="26.86" cy="26.86" r="26.86" style="fill:#82B1FF;"/>
	</g>
</g>

            </g>
        </g>
    </g>
    
    <!-- ITEM 31 -->
    <g>
        <defs>
            <clipPath id="clip-path-id-viewbox-item-31">
                <rect x="0.0" y="0.0" width="81.8" height="102.9"/>
            </clipPath>
        </defs>
        <g transform="translate(369.0 667.0) rotate(0.0 20.5 25.5) scale(0.5012224938875306 0.49562682215743437)">
            <g clip-path="url(#clip-path-id-viewbox-item-31)" transform="translate(-0.0 -0.0)">
                
  
  <g>
    <g>
      <circle cx="63.1" cy="18.7" r="15.7" style="         fill: #fff;       "/>
      <path d="M63.1,37.4A18.7,18.7,0,1,1,81.8,18.7,18.721,18.721,0,0,1,63.1,37.4ZM63.1,6A12.7,12.7,0,1,0,75.8,18.7,12.714,12.714,0,0,0,63.1,6Z" style="         fill: #222433;       "/>
    </g>
    <g>
      <circle cx="15.4" cy="37.5" r="12.4" style="         fill: #fff;       "/>
      <path d="M15.4,52.9A15.4,15.4,0,1,1,30.8,37.5,15.418,15.418,0,0,1,15.4,52.9Zm0-24.8a9.4,9.4,0,1,0,9.4,9.4A9.411,9.411,0,0,0,15.4,28.1Z" style="         fill: #222433;       "/>
    </g>
    <path d="M39.9,102.9a3,3,0,0,1-2.886-3.825l23.2-81.2a3,3,0,1,1,5.769,1.648l-23.2,81.2A3,3,0,0,1,39.9,102.9Z" style="         fill: #222433;       "/>
    <path d="M39.9,102.9A3,3,0,0,1,37.108,101l-24.5-62.4A3,3,0,0,1,18.192,36.4l24.5,62.4a3,3,0,0,1-2.791,4.1Z" style="         fill: #222433;       "/>
  </g>

            </g>
        </g>
    </g>
    
    <!-- ITEM 32 -->
    <g>
        <defs>
            <clipPath id="clip-path-id-viewbox-item-32">
                <rect x="0.0" y="0.0" width="37.4" height="88.3"/>
            </clipPath>
        </defs>
        <g transform="translate(890.0 673.0) rotate(25.189414281594146 10.0 23.5) scale(0.5347593582887701 0.5322763306908267)">
            <g clip-path="url(#clip-path-id-viewbox-item-32)" transform="translate(-0.0 -0.0)">
                
  
  <g>
    <path d="M33.7,88.3a3,3,0,0,1-2.924-2.342L19.223,34.674a3,3,0,1,1,5.854-1.318L36.626,84.641A3,3,0,0,1,33.7,88.3Z" style="         fill: #222433;       "/>
    <g>
      <circle cx="18.7" cy="18.7" r="15.7" style="         fill: #fff;       "/>
      <path d="M18.7,37.4A18.7,18.7,0,1,1,37.4,18.7,18.721,18.721,0,0,1,18.7,37.4ZM18.7,6A12.7,12.7,0,1,0,31.4,18.7,12.715,12.715,0,0,0,18.7,6Z" style="         fill: #222433;       "/>
    </g>
  </g>

            </g>
        </g>
    </g>
    
    <!-- ITEM 33 -->
    <g>
        <defs>
            <clipPath id="clip-path-id-viewbox-item-33">
                <rect x="0.0" y="0.0" width="80.863" height="74.85"/>
            </clipPath>
        </defs>
        <g transform="translate(275.0 682.0) rotate(0.0 20.0 18.5) scale(0.49466381410533866 0.49432197728790916)">
            <g clip-path="url(#clip-path-id-viewbox-item-33)" transform="translate(-0.0 -0.0)">
                

<g>
	<path d="M27.354,71.85L4.264,30.6c-2.686-4.826-0.952-10.915,3.874-13.601c0.599-0.334,1.231-0.605,1.886-0.809l0,0   c4.427-1.355,9.206,0.507,11.55,4.5l10.69,18.24l-0.25-26.88c-0.028-4.97,3.979-9.022,8.95-9.05c0.017,0,0.033,0,0.05,0l0,0   c4.822-0.005,8.791,3.792,9,8.61l1.12,29l9.09-13.93c2.593-3.937,7.783-5.206,11.9-2.91l1.19,0.67   c4.291,2.443,5.812,7.886,3.41,12.2l-19.96,35.21" style="fill:#FFFFFF;"/>
	<path d="M27.357,74.851c-1.051,0-2.071-0.553-2.621-1.535l-23.09-41.25c-1.692-3.041-2.099-6.551-1.147-9.89   c0.951-3.34,3.146-6.109,6.18-7.798c0.778-0.433,1.603-0.787,2.452-1.052c5.796-1.772,11.97,0.633,15.03,5.846l4.998,8.528   l-0.145-15.622C28.978,5.45,34.331,0.037,40.947,0c0.004,0,0.008,0,0.011,0c6.509,0,11.773,5.04,12.053,11.48l0.757,19.603   l3.943-6.043c3.445-5.23,10.414-6.936,15.874-3.89l1.2,0.676c5.709,3.25,7.748,10.547,4.559,16.274L59.374,73.33   c-0.817,1.442-2.648,1.947-4.089,1.13c-1.441-0.817-1.947-2.648-1.13-4.089l19.96-35.21c1.583-2.843,0.563-6.492-2.284-8.114   l-1.177-0.663c-2.719-1.516-6.204-0.665-7.923,1.945l-9.083,13.92c-0.714,1.093-2.053,1.599-3.312,1.252   c-1.259-0.348-2.148-1.471-2.198-2.776l-1.12-29C46.877,8.521,44.245,6,41.023,6c-0.002,0-0.004,0-0.006,0   c-3.344,0.019-6.021,2.725-6.003,6.033l0.25,26.869c0.013,1.359-0.89,2.557-2.201,2.919c-1.31,0.361-2.7-0.202-3.388-1.375   l-10.69-18.24c-1.647-2.806-4.971-4.101-8.084-3.148c-0.442,0.138-0.886,0.328-1.305,0.562c-1.633,0.909-2.815,2.4-3.327,4.199   s-0.293,3.688,0.616,5.322l23.087,41.244c0.809,1.446,0.293,3.274-1.152,4.083C28.356,74.728,27.853,74.851,27.357,74.851z" style="fill:#222433;"/>
</g>

            </g>
        </g>
    </g>
    
    <!-- ITEM 34 -->
    <g>
        <defs>
            <clipPath id="clip-path-id-crop-item-34">
                
          <rect transform="scale(2.054961038961039 2.064429577464789)" x="1.0" y="0.0" width="76.0" height="110.0"/>
        
            </clipPath>
            
            <clipPath id="clip-path-id-viewbox-item-34">
                <rect x="0.0" y="0.0" width="158.232" height="293.149"/>
            </clipPath>
        </defs>
        <g clip-path="url(#clip-path-id-crop-item-34)" transform="translate(905.0 606.0) rotate(8.634808317722568 -38.5 71.0) scale(-0.48662723090146115 0.4843953075057394)">
            <g clip-path="url(#clip-path-id-viewbox-item-34)" transform="translate(-0.0 -0.0)">
                

<g>
	<g>
		<path d="M149.068,39.169c-6.06-3.672-13.95-1.735-17.621,4.326c-0.003,0.005-0.006,0.01-0.009,0.015    c3.673-6.075,1.725-13.977-4.35-17.65c-6.075-3.673-13.977-1.725-17.65,4.35l-33.82,55.57l8.83-64.45    c0.867-7.038-4.136-13.446-11.174-14.313c-6.878-0.847-13.187,3.916-14.256,10.763c1.07-7.01-3.745-13.56-10.755-14.63    s-13.56,3.745-14.63,10.755c-0.016,0.105-0.031,0.21-0.044,0.315l-1.19,8.47l-8,57.15c-2.833,20.208,6.492,40.191,23.8,51    l-0.09,0.13l0,0c6.23,3.716,13.132,6.17,20.31,7.22l0,0v-0.16c20.237,2.538,40.073-7.069,50.63-24.52l29.87-49.37l4.43-7.32    c3.694-6.047,1.787-13.943-4.259-17.637C149.082,39.178,149.075,39.173,149.068,39.169z" style="fill:#FFFFFF;"/>
		<path d="M74.838,141.431c-1.922,0-3.854-0.102-5.791-0.309c-0.345,0.075-0.705,0.088-1.063,0.035    c-7.606-1.112-14.81-3.673-21.413-7.611c-0.309-0.185-0.58-0.421-0.801-0.696c-17.755-11.541-27.292-32.398-24.343-53.427    l9.239-65.969c1.318-8.636,9.413-14.585,18.049-13.271c5.215,0.796,9.451,4.065,11.698,8.432    c3.329-3.379,8.135-5.201,13.227-4.576c8.669,1.067,14.853,8.988,13.785,17.657l-6.88,50.216l26.329-43.262    c4.518-7.473,14.283-9.879,21.765-5.358c4.519,2.732,7.187,7.377,7.594,12.276c0.775-0.327,1.581-0.594,2.413-0.798    c4.107-1.009,8.36-0.357,11.976,1.834c0.009,0.006,0.019,0.011,0.028,0.017c0.003,0.002,0.011,0.007,0.014,0.009l-0.001,0.001    c7.456,4.617,9.778,14.333,5.245,21.753l-34.293,56.679C111.644,131.545,93.788,141.43,74.838,141.431z M68.418,135.029    c0.124,0,0.249,0.008,0.373,0.023c19.038,2.387,37.759-6.678,47.69-23.096l34.301-56.69c2.832-4.636,1.368-10.699-3.257-13.524    l1.543-2.573l-1.554,2.566c-2.246-1.36-4.886-1.766-7.437-1.139c-2.545,0.625-4.696,2.202-6.056,4.441    c-0.005,0.008-0.01,0.017-0.015,0.025c-0.856,1.416-2.697,1.872-4.115,1.018c-1.305-0.786-1.798-2.409-1.202-3.77    c0.052-0.12,0.113-0.237,0.183-0.353c2.811-4.65,1.315-10.72-3.335-13.531c-4.651-2.811-10.72-1.315-13.531,3.335L78.181,87.339    c-0.739,1.214-2.228,1.745-3.567,1.267c-1.339-0.476-2.16-1.826-1.968-3.234l8.83-64.45c0.316-2.568-0.398-5.146-2.015-7.217    s-3.945-3.39-6.553-3.711c-5.3-0.657-10.101,2.97-10.925,8.249c-0.255,1.635-1.788,2.755-3.422,2.502    c-1.635-0.252-2.758-1.782-2.508-3.417c0.819-5.364-2.879-10.394-8.243-11.212c-5.362-0.821-10.393,2.878-11.212,8.243    l-1.229,8.75l-8,57.149c-2.666,19.013,6.134,37.87,22.418,48.04c0.254,0.159,0.481,0.353,0.674,0.575    c5.422,3.104,11.282,5.188,17.445,6.204C68.074,135.044,68.245,135.029,68.418,135.029z" style="fill:#222433;"/>
	</g>
	<g>
		<path d="M105.835,88.82c-0.529,0-1.064-0.14-1.55-0.434c-1.417-0.858-1.872-2.702-1.014-4.12l26.13-43.19    c0.858-1.417,2.702-1.871,4.12-1.014c1.417,0.858,1.872,2.702,1.014,4.12l-26.13,43.19C107.841,88.304,106.85,88.82,105.835,88.82    z" style="fill:#222433;"/>
	</g>
	<g>
		<path d="M3,293.15c-0.333,0-0.673-0.056-1.005-0.174c-1.561-0.555-2.377-2.27-1.822-3.832l62.538-175.95    c0.555-1.561,2.271-2.377,3.831-1.822c1.561,0.555,2.377,2.27,1.822,3.832L5.827,291.154C5.39,292.383,4.234,293.15,3,293.15z" style="fill:#222433;"/>
	</g>
	<g>
		<path d="M52.202,69.75c-0.138,0-0.278-0.01-0.419-0.029c-1.641-0.229-2.785-1.746-2.556-3.387l6.99-49.99    c0.229-1.641,1.741-2.782,3.387-2.556c1.641,0.229,2.785,1.746,2.556,3.387l-6.99,49.99C54.959,68.665,53.674,69.75,52.202,69.75z    " style="fill:#222433;"/>
	</g>
	<g>
		<path d="M57.948,138.56c-0.333,0-0.673-0.056-1.005-0.174c-1.561-0.555-2.376-2.271-1.822-3.832l17.7-49.78    c0.555-1.561,2.271-2.377,3.832-1.822c1.561,0.555,2.377,2.271,1.822,3.832l-17.7,49.78    C60.338,137.793,59.182,138.56,57.948,138.56z" style="fill:#222433;"/>
	</g>
</g>

            </g>
        </g>
    </g>
    
</svg>